<svg version="1.1" viewBox="0.0 0.0 317.93438320209975 440.3622047244094" fill="none" stroke="none" stroke-linecap="square" stroke-miterlimit="10" xmlns:xlink="http://www.w3.org/1999/xlink" xmlns="http://www.w3.org/2000/svg"><clipPath id="p.0"><path d="m0 0l317.9344 0l0 440.3622l-317.9344 0l0 -440.3622z" clip-rule="nonzero"/></clipPath><g clip-path="url(#p.0)"><path fill="#000000" fill-opacity="0.0" d="m0 0l317.9344 0l0 440.3622l-317.9344 0z" fill-rule="evenodd"/><path fill="#666666" d="m109.74541 51.535435l154.60631 0l0 157.66142l-154.60631 0z" fill-rule="evenodd"/><path fill="#515151" d="m264.3517 51.535435l51.53543 -51.535435l0 157.66142l-51.53543 51.53543z" fill-rule="evenodd"/><path fill="#848484" d="m109.74541 51.535435l51.53543 -51.535435l154.60631 0l-51.53543 51.535435z" fill-rule="evenodd"/><path fill="#000000" fill-opacity="0.0" d="m109.74541 51.535435l51.53543 -51.535435l154.60631 0l0 157.66142l-51.53543 51.53543l-154.60631 0zm0 0l154.60631 0l51.53543 -51.535435m-51.53543 51.535435l0 157.66142" fill-rule="evenodd"/><path stroke="#ffffff" stroke-width="3.0" stroke-linejoin="round" stroke-linecap="butt" d="m109.74541 51.535435l51.53543 -51.535435l154.60631 0l0 157.66142l-51.53543 51.53543l-154.60631 0zm0 0l154.60631 0l51.53543 -51.535435m-51.53543 51.535435l0 157.66142" fill-rule="evenodd"/><path fill="#d9d9d9" d="m132.22998 225.4252l133.61877 0l0 0c17.504425 0 31.69455 6.1387024 31.69455 13.711182c0 7.572464 -14.1901245 13.711182 -31.69455 13.711182l-133.61877 0l0 0c-17.50441 0 -31.69455 -6.1387177 -31.69455 -13.711182c0 -7.5724792 14.19014 -13.711182 31.69455 -13.711182z" fill-rule="evenodd"/><path stroke="#000000" stroke-width="1.0" stroke-linejoin="round" stroke-linecap="butt" d="m132.22998 225.4252l133.61877 0l0 0c17.504425 0 31.69455 6.1387024 31.69455 13.711182c0 7.572464 -14.1901245 13.711182 -31.69455 13.711182l-133.61877 0l0 0c-17.50441 0 -31.69455 -6.1387177 -31.69455 -13.711182c0 -7.5724792 14.19014 -13.711182 31.69455 -13.711182z" fill-rule="evenodd"/><path fill="#000000" fill-opacity="0.0" d="m0 216.28084l100.53543 0l0 36.566925l-100.53543 0z" fill-rule="evenodd"/><path fill="#000000" d="m9.78125 236.60709q0 -2.359375 0.484375 -3.796875q0.484375 -1.453125 1.4375 -2.234375q0.96875 -0.78125 2.421875 -0.78125q1.078125 0 1.890625 0.4375q0.8125 0.421875 1.328125 1.25q0.53125 0.8125 0.828125 1.984375q0.3125 1.15625 0.3125 3.140625q0 2.359375 -0.484375 3.8125q-0.484375 1.4375 -1.453125 2.234375q-0.953125 0.78125 -2.421875 0.78125q-1.921875 0 -3.03125 -1.390625q-1.3125 -1.671875 -1.3125 -5.4375zm1.671875 0q0 3.296875 0.765625 4.390625q0.78125 1.078125 1.90625 1.078125q1.140625 0 1.90625 -1.09375q0.765625 -1.09375 0.765625 -4.375q0 -3.296875 -0.765625 -4.375q-0.765625 -1.078125 -1.921875 -1.078125q-1.125 0 -1.796875 0.953125q-0.859375 1.21875 -0.859375 4.5zm9.188217 10.296875l0 -17.0625l3.609375 0l0 1.359375l-1.96875 0l0 14.34375l1.96875 0l0 1.359375l-3.609375 0zm5.152054 -3.703125l0 -9.671875l1.46875 0l0 1.359375q0.453125 -0.71875 1.203125 -1.140625q0.765625 -0.4375 1.71875 -0.4375q1.078125 0 1.765625 0.453125q0.6875 0.4375 0.96875 1.234375q1.15625 -1.6875 2.984375 -1.6875q1.453125 0 2.21875 0.796875q0.78125 0.796875 0.78125 2.453125l0 6.640625l-1.640625 0l0 -6.09375q0 -0.984375 -0.15625 -1.40625q-0.15625 -0.4375 -0.578125 -0.703125q-0.421875 -0.265625 -0.984375 -0.265625q-1.015625 0 -1.6875 0.6875q-0.671875 0.671875 -0.671875 2.15625l0 5.625l-1.640625 0l0 -6.28125q0 -1.09375 -0.40625 -1.640625q-0.40625 -0.546875 -1.3125 -0.546875q-0.6875 0 -1.28125 0.359375q-0.59375 0.359375 -0.859375 1.0625q-0.25 0.703125 -0.25 2.03125l0 5.015625l-1.640625 0zm18.275177 3.703125l-3.609375 0l0 -1.359375l1.96875 0l0 -14.34375l-1.96875 0l0 -1.359375l3.609375 0l0 17.0625z" fill-rule="nonzero"/><path fill="#ff9900" d="m142.24147 133.0315l86.3307 0l0 36.566925l-86.3307 0z" fill-rule="evenodd"/><path stroke="#000000" stroke-width="1.0" stroke-linejoin="round" stroke-linecap="butt" d="m142.24147 133.0315l86.3307 0l0 36.566925l-86.3307 0z" fill-rule="evenodd"/><path fill="#000000" fill-opacity="0.0" d="m245.50656 208.17848l0 31.685028" fill-rule="evenodd"/><path stroke="#000000" stroke-width="3.0" stroke-linejoin="round" stroke-linecap="butt" d="m245.50656 208.17848l0 31.685028" fill-rule="evenodd"/><path fill="#000000" fill-opacity="0.0" d="m149.28084 208.17848l0 30.456696" fill-rule="evenodd"/><path stroke="#000000" stroke-width="3.0" stroke-linejoin="round" stroke-linecap="butt" d="m149.28084 208.17848l0 30.456696" fill-rule="evenodd"/></g></svg>